<svg xmlns="http://www.w3.org/2000/svg" width="32.68" height="42.957" viewBox="0 0 32.68 42.957">
  <g id="address" transform="translate(135.291 545.738)">
    <path id="Контур_282" data-name="Контур 282" d="M-118.927-545.738a16.068,16.068,0,0,1,12.224,5.7,16.515,16.515,0,0,1,3.75,7.592,15.945,15.945,0,0,1,.258,4.934,17.256,17.256,0,0,1-3.508,8.78q-5.682,7.561-11.314,15.159a1.719,1.719,0,0,1-1.437.79,1.6,1.6,0,0,1-1.332-.68q-2.661-3.565-5.32-7.131-3.184-4.268-6.365-8.537A16.729,16.729,0,0,1-135-526.105a16.005,16.005,0,0,1-.255-4.038,16.4,16.4,0,0,1,2.4-7.6,16.3,16.3,0,0,1,10.053-7.51A15.448,15.448,0,0,1-118.927-545.738Zm-.021,38.5.089-.119q5.122-6.85,10.241-13.7a13.473,13.473,0,0,0,2.638-6.96,12.092,12.092,0,0,0-.312-4.062,13.722,13.722,0,0,0-4.841-7.623,12.207,12.207,0,0,0-7.108-2.668,12.459,12.459,0,0,0-5.372.855,12.994,12.994,0,0,0-6.531,5.779,13.572,13.572,0,0,0-1.768,5.466,12.549,12.549,0,0,0,.14,3.355,13.394,13.394,0,0,0,2.5,5.866q4.47,6,8.956,11.983Z" fill="#00408b"/>
    <path id="Контур_283" data-name="Контур 283" d="M-45.955-468.674a7.1,7.1,0,0,1-7,7.1,7.1,7.1,0,0,1-7.2-7.031,7.091,7.091,0,0,1,7.1-7.165A7.084,7.084,0,0,1-45.955-468.674Zm-3.316.013a3.785,3.785,0,0,0-3.746-3.793,3.789,3.789,0,0,0-3.819,3.782,3.776,3.776,0,0,0,3.86,3.78A3.76,3.76,0,0,0-49.272-468.661Z" transform="translate(-65.929 -61.394)" fill="#00408b"/>
  </g>
</svg>
