<svg xmlns="http://www.w3.org/2000/svg" width="37.836" height="26.545" viewBox="0 0 37.836 26.545">
  <g id="email" transform="translate(1064.174 373.923)">
    <path id="Контур_288" data-name="Контур 288" d="M-1039.77-308.487l-.363,2.266h-19.589l-.071.1c.221.194.452.378.66.585q5.812,5.805,11.62,11.616c.4.4.622.4,1.039-.016l7.474-7.476c.051-.051.105-.1.143-.133l1.559,1.636-2.9,2.884,8.026,8.026a5.966,5.966,0,0,0,.066-.641q.007-4.232,0-8.464v-.331l2.257-.353a1.738,1.738,0,0,1,.019.2c0,3,.008,5.994,0,8.991a3.413,3.413,0,0,1-1.991,3.267,3.44,3.44,0,0,1-1.561.32q-13.626.006-27.252,0a3.374,3.374,0,0,1-3.415-2.592,3.873,3.873,0,0,1-.112-1.01c-.007-5.074.017-10.148-.015-15.222a3.53,3.53,0,0,1,3.653-3.659c6.273.027,12.546.01,18.819.01Zm-12.324,13.178-7,7h24.2l-7.021-7.032a1.741,1.741,0,0,1-.172.237c-.933.938-1.866,1.875-2.807,2.8a3.633,3.633,0,0,1-.671.545,2.749,2.749,0,0,1-3.453-.472C-1050.056-293.256-1051.08-294.291-1052.094-295.309Zm-9.766-9.734a.806.806,0,0,0-.022.117q0,7.733,0,15.465a3.256,3.256,0,0,0,.077.5l8.01-8.011Z" transform="translate(0 -61.369)" fill="#00408b"/>
    <path id="Контур_289" data-name="Контур 289" d="M-638.534-365.428a7.475,7.475,0,0,1-.824.57,2.2,2.2,0,0,1-3.384-1.915,4.048,4.048,0,0,1,2.65-4.159,4.786,4.786,0,0,1,3.674.2c.156.069.169.155.142.314-.189,1.13-.367,2.261-.541,3.393a2.579,2.579,0,0,0-.018.525c.011.213.133.288.339.223a1.258,1.258,0,0,0,.735-.669,3.984,3.984,0,0,0,.249-2.922,3.314,3.314,0,0,0-2.976-2.4,4.417,4.417,0,0,0-3.4,1.016,4.778,4.778,0,0,0-1.609,3.927,3.988,3.988,0,0,0,1.077,2.882,3.676,3.676,0,0,0,2.476,1.055,5.219,5.219,0,0,0,2.99-.648l.51,1.619a15.675,15.675,0,0,1-1.826.551,6.9,6.9,0,0,1-2.982-.03,5.015,5.015,0,0,1-3.985-4.1,6.452,6.452,0,0,1,2.1-6.362,6.261,6.261,0,0,1,4.875-1.539,5.068,5.068,0,0,1,3.4,1.578,4.969,4.969,0,0,1,1.33,3.952,4.475,4.475,0,0,1-1.119,2.818,3,3,0,0,1-2.687.967A1.537,1.537,0,0,1-638.534-365.428Zm-.112-3.832c-.114-.006-.164-.014-.214-.011a1.969,1.969,0,0,0-1.576,2.435.448.448,0,0,0,.684.287,1.776,1.776,0,0,0,.5-.446A5.255,5.255,0,0,0-638.646-369.26Z" transform="translate(-392.823 0)" fill="#00408b"/>
  </g>
</svg>
