<?xml version="1.0" encoding="utf-8"?>
<!-- Generator: Adobe Illustrator 21.1.0, SVG Export Plug-In . SVG Version: 6.00 Build 0)  -->
<svg version="1.1" id="Слой_1" xmlns="http://www.w3.org/2000/svg" xmlns:xlink="http://www.w3.org/1999/xlink" x="0px" y="0px"
	 viewBox="0 0 32 32" style="enable-background:new 0 0 32 32;" xml:space="preserve">
<style type="text/css">
	.st0{fill:#FCFCFC;}
</style>
<path class="st0" d="M18.4,31.9c-2.2,0-4.3,0-6.4,0c0-5.3,0-10.6,0-16c-1.1,0-2.2,0-3.3,0c0-1.8,0-3.6,0-5.4c1,0,2.1,0,3.3,0
	c0-0.4,0-0.6,0-0.9c0-1.6-0.1-3.2,0.1-4.8c0.3-2.6,1.9-4.1,4.4-4.5c1.3-0.2,2.7-0.2,4-0.2c0.9,0,1.8,0,2.8,0c0,0.3,0,0.6,0,0.8
	c0,1.6,0,3.2,0,4.8c-1,0-2,0-3,0c-0.2,0-0.5,0-0.7,0c-0.8,0-1.2,0.4-1.2,1.2c0,1.2,0,2.3,0,3.6c1.6,0,3.2,0,4.9,0
	c-0.2,1.9-0.3,3.6-0.5,5.4c-1.5,0-2.9,0-4.4,0C18.4,21.2,18.4,26.6,18.4,31.9z"/>
</svg>
