<?xml version="1.0" encoding="utf-8"?>
<!-- Generator: Adobe Illustrator 23.0.3, SVG Export Plug-In . SVG Version: 6.00 Build 0)  -->
<svg version="1.1" id="Слой_1" xmlns="http://www.w3.org/2000/svg" xmlns:xlink="http://www.w3.org/1999/xlink" x="0px" y="0px"
	 viewBox="0 0 12 12" style="enable-background:new 0 0 12 12;" xml:space="preserve">
<style type="text/css">
	.st0{fill:#666666;}
	.st1{fill:#FFFFFF;}
</style>
<g>
	<g>
		<path class="st0" d="M-1314.9,559.1c-0.2,0.3-0.2,0.6-0.1,0.9c-249,0-498,0-747,0c1.3-0.3,2.6-1,3.9-1c244.1,0,488.1,0,732.2,0
			C-1322.2,559-1318.5,559.1-1314.9,559.1z"/>
		<path class="st0" d="M-1318-420c-1.3,0.3-2.7,1-4,1c-243.2,0-486.3,0-729.5,0c-2.8,0-5.7-0.6-8.5-1
			C-1812.7-420-1565.3-420-1318-420z"/>
	</g>
</g>
<g>
	<g>
		<path class="st1" d="M4.3,12c0,0-0.1,0-0.1,0c-0.3-0.1-0.5-0.2-0.7-0.4c-1.1-1.3-2.1-2.7-3.2-4c-0.5-0.7-0.2-1.7,0.7-1.9
			c0.5-0.1,1,0,1.4,0.5c0.7,0.9,1.4,1.7,2,2.6c0,0,0,0,0,0.1c0.1-0.1,0.1-0.2,0.2-0.3C6.3,5.8,8,3.2,9.6,0.6
			c0.2-0.3,0.5-0.5,0.9-0.6c0,0,0,0,0,0c0.1,0,0.2,0,0.3,0c0,0,0,0,0,0c0.5,0.1,0.9,0.4,1.1,0.9c0,0,0,0.1,0,0.1c0,0.1,0,0.2,0,0.3
			c0,0,0,0,0,0c0,0.2-0.1,0.4-0.2,0.5c-1,1.5-1.9,2.9-2.9,4.4C7.8,8,6.7,9.7,5.6,11.4c-0.2,0.3-0.4,0.4-0.7,0.5
			c-0.1,0-0.2,0-0.2,0.1C4.5,12,4.4,12,4.3,12z"/>
	</g>
</g>
</svg>
