<?xml version="1.0" encoding="utf-8"?>
<!-- Generator: Adobe Illustrator 23.0.3, SVG Export Plug-In . SVG Version: 6.00 Build 0)  -->
<svg version="1.1" id="Слой_1" xmlns="http://www.w3.org/2000/svg" xmlns:xlink="http://www.w3.org/1999/xlink" x="0px" y="0px"
	 viewBox="0 0 12 12" style="enable-background:new 0 0 12 12;" xml:space="preserve">
<style type="text/css">
	.st0{fill:#666666;}
	.st1{fill:#004F9D;}
</style>
<g>
	<g>
		<path class="st0" d="M-1314.9,559.1c-0.2,0.3-0.2,0.6-0.1,0.9c-249,0-498,0-747,0c1.3-0.3,2.6-1,3.9-1c244.1,0,488.1,0,732.2,0
			C-1322.2,559-1318.5,559.1-1314.9,559.1z"/>
		<path class="st0" d="M-1318-420c-1.3,0.3-2.7,1-4,1c-243.2,0-486.3,0-729.5,0c-2.8,0-5.7-0.6-8.5-1
			C-1812.7-420-1565.3-420-1318-420z"/>
	</g>
</g>
<path class="st1" d="M7,5C7,5,7.1,5,7.1,5c1.3,0,2.7,0,4,0c0.5,0,0.7,0.2,0.8,0.6C12,6,12,6.3,11.8,6.6C11.7,6.9,11.5,7,11.2,7
	C9.8,7,8.5,7,7.1,7C7,7,7,7,7,7C7,7,7,7,7,7.1c0,1.3,0,2.7,0,4c0,0.5-0.2,0.7-0.6,0.8C6,12,5.7,12,5.4,11.8C5.2,11.7,5,11.5,5,11.2
	c0-1.4,0-2.7,0-4.1C5,7.1,5,7,5,7C5,7,5,7,4.9,7c-1.3,0-2.7,0-4,0C0.4,7,0.2,6.8,0,6.3C0,6,0,5.6,0.2,5.3C0.4,5.1,0.5,5,0.8,5
	c1.4,0,2.8,0,4.1,0C4.9,5,5,5,5,5c0,0,0-0.1,0-0.1c0-1.3,0-2.7,0-4C5,0.4,5.2,0.2,5.7,0C6,0,6.3,0,6.6,0.2C6.8,0.3,7,0.5,7,0.8
	c0,1.4,0,2.8,0,4.1C7,5,7,5,7,5z"/>
</svg>
