<?xml version="1.0" encoding="utf-8"?>
<!-- Generator: Adobe Illustrator 21.1.0, SVG Export Plug-In . SVG Version: 6.00 Build 0)  -->
<svg version="1.1" id="Слой_1" xmlns="http://www.w3.org/2000/svg" xmlns:xlink="http://www.w3.org/1999/xlink" x="0px" y="0px"
	 viewBox="0 0 32 32" style="enable-background:new 0 0 32 32;" xml:space="preserve">
<style type="text/css">
	.st0{fill:#FAFAFA;}
	.st1{fill:#F8F8F8;}
</style>
<g>
	<path class="st0" d="M16,32c-2.4-0.1-4.8-0.1-7.2-0.2c-2.6-0.1-5-1.1-6.7-3.2C1,27.3,0.4,25.7,0.3,24c-0.1-1.5-0.2-3-0.2-4.5
		c0-3.3,0-6.6,0.1-9.9c0-1.2,0.2-2.4,0.5-3.5C1.8,2.5,4.4,0.6,8,0.2C9.8,0,11.5,0,13.3,0c3,0,6,0,9,0.1c1.2,0,2.5,0.2,3.7,0.6
		c3.4,1.1,5.4,3.6,5.7,7.1C32,11.4,31.9,15,32,18.6c0,1.8-0.1,3.7-0.3,5.5c-0.4,3.9-3.3,6.9-7.1,7.5c-1.4,0.2-2.9,0.3-4.3,0.3
		C18.8,32,17.4,31.9,16,32C16,32,16,32,16,32z M16,29.1c2.3-0.1,4.7-0.1,7-0.2c1.5-0.1,3-0.5,4.1-1.6c1.3-1.3,1.8-2.9,1.8-4.6
		c0.1-3.4,0.1-6.7,0.1-10.1c0-1.6-0.1-3.2-0.3-4.7c-0.3-2.1-1.4-3.7-3.5-4.4c-1-0.3-2-0.5-3.1-0.5c-2.5-0.1-5.1-0.1-7.7-0.1
		c-2.1,0-4.2,0.1-6.3,0.2C6.5,3.2,5,4.1,4,5.6C3.3,6.7,3.1,7.9,3,9.2c-0.1,3.1-0.1,6.1-0.1,9.2c0,1.8,0.1,3.7,0.3,5.5
		c0.1,1.2,0.6,2.3,1.5,3.2c1.2,1.2,2.7,1.7,4.4,1.8C11.3,29,13.7,29,16,29.1z"/>
	<path class="st0" d="M7.8,15.9c0-4.6,3.7-8.2,8.3-8.2c4.2,0,8.2,3.4,8.1,8.2c0,4.6-3.6,8.2-8.2,8.2C11,24.2,7.8,20.1,7.8,15.9z
		 M16,10.7c-2.8-0.1-5.3,2.4-5.3,5.3c0,2.6,2.1,5.3,5.3,5.3c2.9,0,5.3-2.4,5.3-5.4C21.3,12.9,18.7,10.6,16,10.7z"/>
	<path class="st1" d="M26.4,7.5c0,1.1-0.9,1.9-1.9,1.9c-1.1,0-1.9-0.9-1.9-2c0-1.1,0.9-1.9,1.9-1.9C25.6,5.5,26.4,6.4,26.4,7.5z"/>
</g>
</svg>
