<svg xmlns="http://www.w3.org/2000/svg" width="25.108" height="29.539" viewBox="0 0 25.108 29.539">
  <g id="ic_sharp-log-in" transform="translate(-1.75 -1.167)">
    <path id="Контур_240" data-name="Контур 240" d="M7.037,1.167H20.33a2.963,2.963,0,0,1,2.954,2.954V27.752a2.963,2.963,0,0,1-2.954,2.954H7.037a2.963,2.963,0,0,1-2.954-2.954V24.8H7.037v2.954H20.33V4.121H7.037V7.075H4.083V4.121A2.963,2.963,0,0,1,7.037,1.167Z" transform="translate(3.575 0)" fill="#969696"/>
    <path id="Контур_241" data-name="Контур 241" d="M12.222,16.77,14.3,18.853l7.385-7.385L14.3,4.083,12.222,6.166l3.811,3.825H1.75v2.954H16.032Z" transform="translate(0 4.468)" fill="#969696"/>
  </g>
</svg>
