<svg xmlns="http://www.w3.org/2000/svg" xmlns:xlink="http://www.w3.org/1999/xlink" width="228.077" height="186.873" viewBox="0 0 228.077 186.873">
  <defs>
    <linearGradient id="linear-gradient" x1="0.213" y1="0.73" x2="0.946" y2="0.049" gradientUnits="objectBoundingBox">
      <stop offset="0" stop-color="#d4ce00"/>
      <stop offset="0.999" stop-color="#e5de64"/>
    </linearGradient>
    <linearGradient id="linear-gradient-2" x1="-0.667" y1="0.246" x2="1.266" y2="0.717" gradientUnits="objectBoundingBox">
      <stop offset="0.315" stop-color="#003783"/>
      <stop offset="0.405" stop-color="#00428d"/>
      <stop offset="0.563" stop-color="#005fab"/>
      <stop offset="0.668" stop-color="#0077c2"/>
      <stop offset="0.741" stop-color="#047cc5"/>
      <stop offset="0.829" stop-color="#138bcf"/>
      <stop offset="0.926" stop-color="#2aa3e0"/>
      <stop offset="0.998" stop-color="#40bbf0"/>
    </linearGradient>
    <linearGradient id="linear-gradient-3" x1="0.96" y1="-0.121" x2="0.088" y2="0.727" gradientUnits="objectBoundingBox">
      <stop offset="0.017" stop-color="#003783"/>
      <stop offset="0.255" stop-color="#004f9d"/>
      <stop offset="0.75" stop-color="#0083ce"/>
      <stop offset="1" stop-color="#0099e3"/>
    </linearGradient>
  </defs>
  <g id="logo_footer" transform="translate(-135.402 -245.894)">
    <path id="Контур_250" data-name="Контур 250" d="M259.2,365.468s42.105-51.583,111.67-64.17c2.936,2.936.517,4.86.517,4.86s-51.962,9.859-98,65.183C267.165,373.018,259.2,365.468,259.2,365.468Z" transform="translate(-34.094 -15.259)" fill="url(#linear-gradient)"/>
    <path id="Контур_251" data-name="Контур 251" d="M350.211,329.14l.017-.007c-2.264-10.585-12.372-84.407-32.3-83.226-18.321,1.086-54.754,87.532-60.508,101.461a8.654,8.654,0,0,0-1.2,4.4,8.773,8.773,0,0,0,17.3,2.009c26.218-63.292,39.715-113.1,50.282-101.082,9.436,10.7,19.555,77.225,19.555,77.225h.008a3.453,3.453,0,1,0,6.842-.78Z" transform="translate(-33.274 0)" fill="url(#linear-gradient-2)"/>
    <path id="Контур_252" data-name="Контур 252" d="M201,334.156a17.487,17.487,0,0,0,2.187,12.835,19.323,19.323,0,0,0,16.043,9.175A21.607,21.607,0,0,0,201,334.156ZM184.478,356.97a19.98,19.98,0,0,0-8.455-2.288,21.6,21.6,0,0,0,18.3,22.19c.014-.07.031-.137.044-.207C195.916,368.653,191.6,360.73,184.478,356.97Zm13.99-12.469a25.518,25.518,0,0,1-.878-10.607,21.6,21.6,0,0,0-20.777,15.763,22.719,22.719,0,0,1,13.423,6.18,25.429,25.429,0,0,1,7.444,21.288,21.6,21.6,0,0,0,20.733-15.7A23.844,23.844,0,0,1,198.469,344.5Z" transform="translate(-11.183 -24.236)" fill="#e3d400"/>
    <g id="Сгруппировать_6" data-name="Сгруппировать 6" transform="translate(255.231 347.87)">
      <path id="Контур_253" data-name="Контур 253" d="M300.777,386.753h1.2l2.8,3.637,2.7-3.637h1.186v7.833H307.3v-5.427l-2.383,3.111h-.346l-2.44-3.121v5.438h-1.354Z" transform="translate(-300.777 -386.664)" fill="#003a83"/>
      <path id="Контур_254" data-name="Контур 254" d="M314.115,386.753h5.818v1.276h-4.466V390h4.174v1.23h-4.174v2.081h4.577v1.276h-5.93Z" transform="translate(-304.45 -386.664)" fill="#003a83"/>
      <path id="Контур_255" data-name="Контур 255" d="M323.322,386.753h1.656l2.943,3.256v-3.256h1.354v3.267l2.932-3.267h1.678l-3.234,3.558,3.256,4.274h-1.622l-2.674-3.525-.335.347v3.178h-1.354v-3.178l-.37-.358-2.7,3.536H323.3l3.222-4.263Z" transform="translate(-306.98 -386.664)" fill="#003a83"/>
      <path id="Контур_256" data-name="Контур 256" d="M338.043,393.321h.839c.515-.772.873-1.947.873-5.427v-1.141h5.538v6.568h.951v2.64h-1.309v-1.376h-5.583v1.376h-1.309Zm3-4.811a10.609,10.609,0,0,1-.751,4.811h3.648v-5.3h-2.9Z" transform="translate(-311.04 -386.664)" fill="#003a83"/>
      <path id="Контур_257" data-name="Контур 257" d="M351.862,393.3a.624.624,0,0,0,.257.056c.257,0,.5-.28.75-.783l-3.726-5.818h1.667l2.753,4.4,2.07-4.4h1.422l-2.9,6.02c-.549,1.164-1.1,1.846-2.071,1.846a1.565,1.565,0,0,1-.749-.19Z" transform="translate(-314.098 -386.664)" fill="#003a83"/>
      <path id="Контур_258" data-name="Контур 258" d="M366.907,391.263H362.8v3.323h-1.353v-7.833H362.8v3.234h4.107v-3.234h1.354v7.833h-1.354Z" transform="translate(-317.486 -386.664)" fill="#003a83"/>
      <path id="Контур_259" data-name="Контур 259" d="M375.657,386.753h1.029l3.435,7.833H378.7l-.76-1.735H374.37l-.75,1.735h-1.4Zm-.795,4.935h2.574l-1.286-2.977Z" transform="translate(-320.454 -386.664)" fill="#003a83"/>
      <path id="Контур_260" data-name="Контур 260" d="M384.495,394.586v-7.833h3.166c2.641,0,3.256,1.332,3.256,2.574,0,1.287-.827,2.574-3.266,2.574h-1.8v2.685Zm1.354-6.568v2.618h1.779c1.321,0,1.88-.514,1.88-1.32,0-.749-.47-1.3-1.8-1.3Z" transform="translate(-323.834 -386.664)" fill="#003a83"/>
      <path id="Контур_261" data-name="Контур 261" d="M398.5,386.63a4.006,4.006,0,1,1-4.006,4.006A3.925,3.925,0,0,1,398.5,386.63Zm0,6.713a2.564,2.564,0,0,0,2.6-2.708,2.6,2.6,0,1,0-2.6,2.708Z" transform="translate(-326.589 -386.63)" fill="#003a83"/>
      <path id="Контур_262" data-name="Контур 262" d="M405.752,393.321h.839c.515-.772.873-1.947.873-5.427v-1.141H413v6.568h.951v2.64h-1.309v-1.376h-5.584v1.376h-1.309Zm3-4.811a10.622,10.622,0,0,1-.75,4.811h3.648v-5.3h-2.9Z" transform="translate(-329.688 -386.664)" fill="#003a83"/>
      <path id="Контур_263" data-name="Контур 263" d="M424.073,391.263h-4.107v3.323h-1.354v-7.833h1.354v3.234h4.107v-3.234h1.354v7.833h-1.354Z" transform="translate(-333.23 -386.664)" fill="#003a83"/>
      <path id="Контур_264" data-name="Контур 264" d="M432.822,386.753h1.03l3.435,7.833h-1.421l-.761-1.735h-3.569l-.75,1.735h-1.4Zm-.795,4.935H434.6l-1.287-2.977Z" transform="translate(-336.198 -386.664)" fill="#003a83"/>
      <path id="Контур_265" data-name="Контур 265" d="M446.187,391.833h-1.735l-2.2,2.753h-1.622l2.428-2.987a2.268,2.268,0,0,1-1.88-2.294c0-1.421,1.029-2.551,3.177-2.551h3.189v7.833h-1.354Zm0-1.264v-2.551h-1.936c-1.2,0-1.667.526-1.667,1.287,0,.683.582,1.219,1.533,1.264Z" transform="translate(-339.293 -386.664)" fill="#003a83"/>
    </g>
    <g id="Сгруппировать_7" data-name="Сгруппировать 7" transform="translate(135.402 366.739)">
      <path id="Контур_266" data-name="Контур 266" d="M135.4,439.86q.86-2.3,1.856-4.766t1.993-4.863q1-2.4,1.953-4.669t1.778-4.161q.819-1.894,1.464-3.34t1.035-2.226a5.728,5.728,0,0,1,1.914-2.5,4.667,4.667,0,0,1,2.539-.664,4.6,4.6,0,0,1,3.437,1.172q.7,1.211,1.68,3.262t2.051,4.531q1.074,2.481,2.168,5.157t2.071,5.176q.976,2.5,1.777,4.571t1.27,3.321h-6.016q-.313-.86-.879-2.285t-1.348-3.418H143.372q-.783,1.992-1.328,3.4t-.9,2.3Zm14.376-21.6q-.2.391-.644,1.485t-1.055,2.617q-.606,1.524-1.348,3.34t-1.446,3.614h8.946q-.7-1.8-1.425-3.614t-1.348-3.32q-.626-1.5-1.075-2.6T149.778,418.257Z" transform="translate(-135.402 -412.671)" fill="#003783"/>
      <path id="Контур_267" data-name="Контур 267" d="M185.113,428.927V439.9h-5.664V415.567a2.205,2.205,0,0,1,.8-1.934,3.7,3.7,0,0,1,2.169-.566,5.9,5.9,0,0,1,1.738.234q.762.235.957.312V424.63h.274a3.74,3.74,0,0,0,2.07-.664,9.994,9.994,0,0,0,1.934-1.68,18,18,0,0,0,1.7-2.207q.781-1.191,1.367-2.285a11.217,11.217,0,0,1,2.891-3.711,4.906,4.906,0,0,1,2.89-1.25,3.781,3.781,0,0,1,2.52.723,3.582,3.582,0,0,1,1.113,2.09,8.308,8.308,0,0,0-2.969,2.109,21.965,21.965,0,0,0-2.266,3.125,24.121,24.121,0,0,1-1.406,2.169,10.584,10.584,0,0,1-1.446,1.621,9.314,9.314,0,0,1-1.269.976,8.656,8.656,0,0,1-1.5.782v.039a5.052,5.052,0,0,1,1.582.742,12.118,12.118,0,0,1,1.191.938q.429.43.8.781a7.565,7.565,0,0,1,.684.742q.624.783,1.289,1.563t1.348,1.446a10.689,10.689,0,0,0,1.426,1.172,4.1,4.1,0,0,0,1.6.664v6.094a9.826,9.826,0,0,1-2.559-1.054,15.927,15.927,0,0,1-2.246-1.6A17.271,17.271,0,0,1,194.176,436q-.9-1.054-1.719-2.07-.665-.821-1.485-1.7a15.814,15.814,0,0,0-1.758-1.621A10.171,10.171,0,0,0,187.3,429.4a4.4,4.4,0,0,0-1.914-.469Z" transform="translate(-147.533 -412.715)" fill="#003783"/>
      <path id="Контур_268" data-name="Контур 268" d="M212.684,439.86q.859-2.3,1.856-4.766t1.993-4.863q1-2.4,1.953-4.669t1.777-4.161q.821-1.894,1.465-3.34t1.035-2.226a5.732,5.732,0,0,1,1.914-2.5,4.67,4.67,0,0,1,2.54-.664,4.6,4.6,0,0,1,3.437,1.172q.7,1.211,1.68,3.262t2.051,4.531q1.074,2.481,2.168,5.157t2.07,5.176q.976,2.5,1.777,4.571t1.269,3.321h-6.016q-.313-.86-.879-2.285t-1.348-3.418H220.653q-.781,1.992-1.328,3.4t-.9,2.3Zm14.376-21.6q-.2.391-.645,1.485t-1.054,2.617q-.606,1.524-1.348,3.34t-1.446,3.614h8.946q-.7-1.8-1.426-3.614t-1.348-3.32q-.625-1.5-1.074-2.6T227.06,418.257Z" transform="translate(-156.686 -412.671)" fill="#003783"/>
      <path id="Контур_269" data-name="Контур 269" d="M258.938,435.032q.664-2.462,1.309-5.04t1.309-5.821a20.3,20.3,0,0,1,1.622-5.019,11,11,0,0,1,2.539-3.419,9.512,9.512,0,0,1,3.516-1.953,15.347,15.347,0,0,1,4.551-.625h3.672a5.768,5.768,0,0,1,1.953.234,2.34,2.34,0,0,1,1.015.82v20.822h4.258v9.578H279.1v-4.617H260.7v4.617H255.11v-9.578Zm8.047-10.157q-.586,2.852-1.211,5.294t-1.289,4.863h10.274V418.117h-.781a8.555,8.555,0,0,0-2.813.41,4.932,4.932,0,0,0-1.973,1.251,6.8,6.8,0,0,0-1.328,2.109A16.462,16.462,0,0,0,266.985,424.875Z" transform="translate(-168.371 -412.805)" fill="#003783"/>
      <path id="Контур_270" data-name="Контур 270" d="M306.334,428.977v6.055h13.2v4.961H300.669V416.2q0-3.048,3.164-3.047h13.243a2.774,2.774,0,0,1,2.07.625,2.533,2.533,0,0,1,.586,1.8,4.693,4.693,0,0,1-.254,1.6,5.087,5.087,0,0,1-.41.937H306.334v5.9h10.2a2.77,2.77,0,0,1,2.07.625,2.531,2.531,0,0,1,.586,1.8,4.711,4.711,0,0,1-.254,1.6,5.161,5.161,0,0,1-.41.937Z" transform="translate(-180.918 -412.805)" fill="#003783"/>
      <path id="Контур_271" data-name="Контур 271" d="M358.25,439.993,357.2,421.2q-1.679,3.632-3.242,6.953t-3.282,6.836h-3.75q-.86-1.718-1.758-3.574t-1.738-3.672q-.84-1.816-1.621-3.5T340.4,421.2l-1.016,18.79h-5.664l1.25-23.751a3.057,3.057,0,0,1,1-2.324,3.7,3.7,0,0,1,2.441-.762,7.147,7.147,0,0,1,2.324.332,6.019,6.019,0,0,1,1.348.605q.781,1.6,1.621,3.36t1.7,3.574q.859,1.816,1.738,3.633t1.777,3.5q1.64-3.242,3.184-6.387t2.871-6.074a4.773,4.773,0,0,1,1.446-1.953,4.238,4.238,0,0,1,2.461-.585,6.692,6.692,0,0,1,2.363.351,4.988,4.988,0,0,1,1.153.547l1.484,25.939Z" transform="translate(-190.021 -412.805)" fill="#003783"/>
      <path id="Контур_272" data-name="Контур 272" d="M388.28,424.563q0,1.757-.02,3.535t-.136,4.043h.039q.273-.586.507-1.093t.547-1.152q.313-.646.8-1.5t1.23-2.149q.547-.9,1.269-2.031t1.543-2.3q.821-1.172,1.641-2.3t1.543-2.07q.723-.938,1.27-1.621t.781-.958a8.413,8.413,0,0,1,1.446-1.191,4.359,4.359,0,0,1,2.461-.605,6.189,6.189,0,0,1,1.758.195q.625.2,1.055.351v26.291h-5.664V427.3q0-1.562.02-3.359t.175-3.75h-.039q-.781,1.486-1.933,3.653a51.362,51.362,0,0,1-2.911,4.746Q395,429.6,394.1,430.95t-1.894,2.872l-2.032,3.1q-1.036,1.584-2.011,3.067h-5.547V415.656a2.205,2.205,0,0,1,.8-1.934,3.7,3.7,0,0,1,2.169-.566,5.909,5.909,0,0,1,1.738.234q.761.235.956.312Z" transform="translate(-203.488 -412.805)" fill="#003783"/>
      <path id="Контур_273" data-name="Контур 273" d="M441.943,439.993H436.4v-9.532q-.664.078-1.25.117t-1.016.039a5.072,5.072,0,0,0-3.164,1.152A17.74,17.74,0,0,0,428,434.8q-.509.625-1.289,1.523a16.522,16.522,0,0,1-1.8,1.758,14.285,14.285,0,0,1-2.187,1.524,6.526,6.526,0,0,1-2.422.82v-5.86a4.433,4.433,0,0,0,1.954-.957,14.167,14.167,0,0,0,1.6-1.582q.741-.86,1.446-1.68a4.82,4.82,0,0,1,1.485-1.212,6.416,6.416,0,0,1-2.09-1.152,8.25,8.25,0,0,1-2.6-3.887,7.494,7.494,0,0,1-.351-2.227,10.024,10.024,0,0,1,.41-2.891,8.05,8.05,0,0,1,1.25-2.5,7.468,7.468,0,0,1,2.11-1.914,9.154,9.154,0,0,1,2.949-1.133q.664-.117,1.485-.2t1.562-.078h7.266q3.164,0,3.164,3.047Zm-14.415-18.165a4.642,4.642,0,0,0,.273,1.583,3.246,3.246,0,0,0,.938,1.348,4.866,4.866,0,0,0,1.8.938,9.792,9.792,0,0,0,2.852.351,16.66,16.66,0,0,0,2.109-.1,4.828,4.828,0,0,0,.9-.176v-8.086h-3.828a11.993,11.993,0,0,0-1.348.078,5.862,5.862,0,0,0-1.153.235,3.264,3.264,0,0,0-1.992,1.485A4.86,4.86,0,0,0,427.528,421.828Z" transform="translate(-213.866 -412.805)" fill="#003783"/>
    </g>
    <rect id="Прямоугольник_25" data-name="Прямоугольник 25" width="162.88" height="27.427" rx="13.713" transform="translate(170.118 405.339)" fill="#003783"/>
    <g id="Сгруппировать_8" data-name="Сгруппировать 8" transform="translate(186.313 409.531)">
      <path id="Контур_274" data-name="Контур 274" d="M219.742,472.334a1.831,1.831,0,0,1,1.368.414,1.67,1.67,0,0,1,.388,1.188,3.111,3.111,0,0,1-.168,1.059,3.363,3.363,0,0,1-.272.621h-5.786V490.08h-3.745V475.615H207.42a1.835,1.835,0,0,1-1.369-.414,1.675,1.675,0,0,1-.387-1.188,3.1,3.1,0,0,1,.168-1.059,3.335,3.335,0,0,1,.271-.62Z" transform="translate(-205.664 -471.895)" fill="#fff"/>
      <path id="Контур_275" data-name="Контур 275" d="M235.539,482.8v4h8.731v3.281H231.794V474.349q0-2.015,2.093-2.015h8.757a1.832,1.832,0,0,1,1.369.414,1.67,1.67,0,0,1,.387,1.188,3.112,3.112,0,0,1-.167,1.059,3.377,3.377,0,0,1-.271.621h-8.421v3.9h6.742a1.833,1.833,0,0,1,1.369.414,1.671,1.671,0,0,1,.387,1.188,3.113,3.113,0,0,1-.167,1.059,3.39,3.39,0,0,1-.271.62Z" transform="translate(-212.861 -471.895)" fill="#fff"/>
      <path id="Контур_276" data-name="Контур 276" d="M267.1,473.988a1.458,1.458,0,0,1,.529-1.279,2.439,2.439,0,0,1,1.434-.375,3.932,3.932,0,0,1,1.15.155c.335.1.546.172.633.207V490.08H267.1v-7.594h-7.749v7.594h-3.745V473.988a1.459,1.459,0,0,1,.53-1.279,2.435,2.435,0,0,1,1.433-.375,3.92,3.92,0,0,1,1.149.155q.5.155.633.207v6.561H267.1Z" transform="translate(-219.419 -471.895)" fill="#fff"/>
      <path id="Контур_277" data-name="Контур 277" d="M294.908,473.988a1.459,1.459,0,0,1,.53-1.279,2.435,2.435,0,0,1,1.433-.375,3.92,3.92,0,0,1,1.149.155q.5.155.633.207V490.08h-3.745v-7.594h-7.749v7.594h-3.745V473.988a1.457,1.457,0,0,1,.53-1.279,2.437,2.437,0,0,1,1.433-.375,3.928,3.928,0,0,1,1.15.155q.5.155.633.207v6.561h7.749Z" transform="translate(-227.077 -471.895)" fill="#fff"/>
      <path id="Контур_278" data-name="Контур 278" d="M314.964,479.877q0,1.162-.013,2.337t-.091,2.674h.026q.18-.388.335-.724c.1-.223.224-.478.362-.762s.314-.616.53-.995.486-.852.814-1.421q.361-.593.839-1.343t1.02-1.524q.542-.775,1.085-1.524t1.02-1.369q.478-.621.84-1.072c.241-.3.413-.512.516-.633a5.588,5.588,0,0,1,.956-.788,2.882,2.882,0,0,1,1.627-.4,4.106,4.106,0,0,1,1.162.129c.275.086.508.164.7.233V490.08h-3.745v-8.4q0-1.034.013-2.222t.117-2.48h-.026q-.517.983-1.279,2.415a33.756,33.756,0,0,1-1.924,3.139q-.44.673-1.034,1.563t-1.252,1.9l-1.343,2.054q-.685,1.047-1.33,2.028h-3.668V473.988a1.458,1.458,0,0,1,.529-1.279,2.441,2.441,0,0,1,1.434-.375,3.932,3.932,0,0,1,1.15.155q.5.155.633.207Z" transform="translate(-234.735 -471.895)" fill="#fff"/>
      <path id="Контур_279" data-name="Контур 279" d="M353.9,474.672a1.87,1.87,0,0,1-.168.8,3.052,3.052,0,0,1-.4.646,3.139,3.139,0,0,1-.478.478,2.582,2.582,0,0,1-.4.271q-.208-.206-.581-.542a4.756,4.756,0,0,0-.969-.646,7.55,7.55,0,0,0-1.408-.542,6.7,6.7,0,0,0-1.847-.233,5.569,5.569,0,0,0-2.248.439,4.991,4.991,0,0,0-1.73,1.24,5.672,5.672,0,0,0-1.124,1.924,7.477,7.477,0,0,0-.4,2.519,6.218,6.218,0,0,0,1.511,4.52,5.388,5.388,0,0,0,4.042,1.55,8.435,8.435,0,0,0,1.9-.194,10.27,10.27,0,0,0,1.434-.426,5.518,5.518,0,0,0,.956-.464q.361-.233.465-.31l1.653,2.79a3.951,3.951,0,0,1-.62.426,8.4,8.4,0,0,1-1.343.62,13.7,13.7,0,0,1-2.028.568,13.139,13.139,0,0,1-2.673.246,10.761,10.761,0,0,1-3.617-.594,7.916,7.916,0,0,1-2.9-1.782,8.478,8.478,0,0,1-1.938-2.919,10.544,10.544,0,0,1-.711-4.029,10.084,10.084,0,0,1,.711-3.887,8.447,8.447,0,0,1,1.963-2.919,8.664,8.664,0,0,1,2.945-1.847,10.253,10.253,0,0,1,3.681-.646,10.851,10.851,0,0,1,3.409.439,7.774,7.774,0,0,1,1.911.878,2.807,2.807,0,0,1,.749.788A1.613,1.613,0,0,1,353.9,474.672Z" transform="translate(-242.187 -471.728)" fill="#fff"/>
      <path id="Контур_280" data-name="Контур 280" d="M362.7,489.992q.568-1.525,1.227-3.152t1.317-3.216q.659-1.588,1.292-3.087t1.175-2.751q.542-1.253.969-2.208t.685-1.472a3.789,3.789,0,0,1,1.266-1.654,3.083,3.083,0,0,1,1.678-.439,3.313,3.313,0,0,1,1.537.285,3.372,3.372,0,0,1,.737.49q.464.8,1.11,2.157t1.356,3q.71,1.639,1.434,3.409t1.369,3.422q.646,1.654,1.175,3.022t.839,2.2h-3.978q-.207-.568-.581-1.511t-.891-2.261h-8.447q-.517,1.318-.878,2.248l-.594,1.525Zm9.505-14.285q-.129.259-.425.981t-.7,1.731q-.4,1.008-.891,2.208t-.956,2.39h5.916q-.465-1.188-.943-2.39t-.891-2.2q-.413-.993-.711-1.717T372.2,475.707Z" transform="translate(-248.912 -471.806)" fill="#fff"/>
    </g>
    <path id="Контур_281" data-name="Контур 281" d="M359.638,294.205c0-.017-.53-.118-.53-.118S281.047,277.3,210.452,318.093a27.513,27.513,0,0,1,23.125,25.99c21.422-18.1,68.314-52.119,123.545-41.019.387.066.777.108,1.1.132A4.432,4.432,0,0,0,363,298.985,4.6,4.6,0,0,0,359.638,294.205Z" transform="translate(-20.67 -12.331)" fill="url(#linear-gradient-3)"/>
  </g>
</svg>
