<svg xmlns="http://www.w3.org/2000/svg" width="31.68" height="31.674" viewBox="0 0 31.68 31.674">
  <g id="phone" transform="translate(758.591 -188.917)">
    <path id="Контур_290" data-name="Контур 290" d="M-758.591,221.22c.077-.238.15-.477.232-.713a2.191,2.191,0,0,1,.556-.867q.927-.9,1.829-1.828a3.213,3.213,0,0,1,2.057-.967,3.877,3.877,0,0,1,3.553,1.617,3.848,3.848,0,0,1,.687,1.44c.314,1.19.673,2.368.958,3.564a3.562,3.562,0,0,1-.912,3.414c-.4.428-.823.832-1.24,1.242a.208.208,0,0,0-.065.239,14.809,14.809,0,0,0,5.271,7.779,14.691,14.691,0,0,0,5.023,2.523.218.218,0,0,0,.252-.065c.381-.39.778-.765,1.153-1.161a3.6,3.6,0,0,1,2.055-1.045,3.7,3.7,0,0,1,1.694.11c1.183.336,2.373.65,3.559.977a3.779,3.779,0,0,1,1.792,1.159,3.746,3.746,0,0,1,1.043,2.8,3.318,3.318,0,0,1-1,2.275c-.6.584-1.193,1.171-1.77,1.775a2.4,2.4,0,0,1-1.043.638c-.2.064-.409.124-.614.186H-735a.65.65,0,0,0-.114-.033c-.73-.072-1.464-.121-2.19-.219a23.642,23.642,0,0,1-4.368-1.03,24.588,24.588,0,0,1-8.442-4.837,24.551,24.551,0,0,1-6.55-9.086,24.721,24.721,0,0,1-1.893-8.259.646.646,0,0,0-.034-.127Z" transform="translate(0 -25.724)" fill="#00408b"/>
    <path id="Контур_291" data-name="Контур 291" d="M-540.427,204.752h-1.983a13.674,13.674,0,0,0-4.077-9.777,13.683,13.683,0,0,0-9.787-4.081v-1.977a15.561,15.561,0,0,1,10.671,4.157A15.666,15.666,0,0,1-540.427,204.752Z" transform="translate(-186.484)" fill="#00408b"/>
    <path id="Контур_292" data-name="Контур 292" d="M-546.3,274.907h-1.967a7.822,7.822,0,0,0-2.328-5.583,7.815,7.815,0,0,0-5.587-2.333v-1.961A9.871,9.871,0,0,1-546.3,274.907Z" transform="translate(-186.569 -70.155)" fill="#00408b"/>
    <path id="Контур_293" data-name="Контур 293" d="M-556.22,342.9v-1.957a3.914,3.914,0,0,1,3.941,3.934h-1.956A2.013,2.013,0,0,0-556.22,342.9Z" transform="translate(-186.534 -140.126)" fill="#00408b"/>
  </g>
</svg>
