<svg xmlns="http://www.w3.org/2000/svg" width="43.127" height="43.124" viewBox="0 0 43.127 43.124">
  <path id="t-ball" d="M80.939-332.845a17.443,17.443,0,0,0,2.181,12.8,19.275,19.275,0,0,0,16,9.152,21.477,21.477,0,0,0-4.635-14.032A21.489,21.489,0,0,0,80.939-332.845ZM64.457-310.088a19.931,19.931,0,0,0-8.434-2.283,21.478,21.478,0,0,0,4.629,14.2,21.484,21.484,0,0,0,13.622,7.933c.014-.069.031-.137.044-.207C75.867-298.433,71.557-306.337,64.457-310.088Zm13.956-12.438a25.455,25.455,0,0,1-.876-10.581,21.47,21.47,0,0,0-13.343,4.644,21.464,21.464,0,0,0-7.382,11.08,22.662,22.662,0,0,1,13.39,6.165,25.365,25.365,0,0,1,7.426,21.236,21.467,21.467,0,0,0,13.32-4.644,21.461,21.461,0,0,0,7.362-11.013A23.785,23.785,0,0,1,78.413-322.526Z" transform="translate(-56.008 333.107)" fill="#00408b"/>
</svg>
