<?xml version="1.0" encoding="utf-8"?>
<!-- Generator: Adobe Illustrator 21.1.0, SVG Export Plug-In . SVG Version: 6.00 Build 0)  -->
<svg version="1.1" id="Слой_1" xmlns="http://www.w3.org/2000/svg" xmlns:xlink="http://www.w3.org/1999/xlink" x="0px" y="0px"
	 viewBox="0 0 32 32" style="enable-background:new 0 0 32 32;" xml:space="preserve">
<style type="text/css">
	.st0{fill:#00408B;}
</style>
<path class="st0" d="M31,3.5c-0.3,1.3-1.2,2.2-2.2,3.1c-0.1,0.1-0.2,0.2-0.3,0.2c0,0,0,0.1,0.1,0.1c0.2,0,0.3-0.1,0.5-0.1
	c0.9-0.2,1.9-0.5,2.9-0.7c-0.7,1.1-1.6,2-2.5,2.8c-0.5,0.4-0.6,0.7-0.6,1.3c-0.3,7.9-3.8,13.9-11,17.3C12,30.1,6.1,29.7,0.5,26.6
	c-0.1-0.1-0.3-0.2-0.4-0.3c1.7,0,3.3-0.1,4.8-0.6c1.6-0.5,3.1-1.1,4.5-2.3C8,23.2,6.7,22.9,5.7,22c-1.1-0.8-1.8-1.9-2.3-3.3
	c1,0,1.8,0,2.7,0c-3.2-1.3-5.1-3.8-4.9-6.5c0.8,0.2,1.7,0.5,2.5,0.7c0,0,0.1-0.1,0.1-0.1C1,10.3,0.3,7.4,1.9,4
	c2.4,2.8,5.2,4.9,8.7,6c1.6,0.5,3.2,0.9,4.8,0.9c0.1-1.1,0.1-2.1,0.3-3.1c0.6-2.8,3.3-5,6.2-5c1.8,0,3.4,0.5,4.7,1.7
	c0.3,0.3,0.6,0.4,1,0.2C28.7,4.3,29.8,3.9,31,3.5C30.9,3.5,31,3.5,31,3.5z"/>
</svg>
