<?xml version="1.0" encoding="utf-8"?>
<!-- Generator: Adobe Illustrator 21.1.0, SVG Export Plug-In . SVG Version: 6.00 Build 0)  -->
<svg version="1.1" id="Слой_1" xmlns="http://www.w3.org/2000/svg" xmlns:xlink="http://www.w3.org/1999/xlink" x="0px" y="0px"
	 viewBox="0 0 32 32" style="enable-background:new 0 0 32 32;" xml:space="preserve">
<style type="text/css">
	.st0{fill:#FCFCFC;}
</style>
<path class="st0" d="M31.1,3.5c-0.3,1.3-1.2,2.2-2.2,3.1c-0.1,0.1-0.2,0.2-0.3,0.2c0,0,0,0.1,0.1,0.1c0.2,0,0.3-0.1,0.5-0.1
	C30,6.5,31,6.3,32,6c-0.7,1.1-1.6,2-2.5,2.8c-0.5,0.4-0.6,0.8-0.6,1.3c-0.4,7.9-3.8,14-11.1,17.4c-5.8,2.7-11.7,2.3-17.4-0.8
	c-0.1-0.1-0.3-0.2-0.4-0.3c1.7,0,3.3-0.1,4.9-0.6c1.6-0.5,3.1-1.1,4.5-2.3c-1.4-0.2-2.7-0.6-3.8-1.4c-1.1-0.8-1.8-1.9-2.4-3.3
	c1,0,1.8,0,2.7,0C2.7,17.5,0.8,15,1,12.2c0.8,0.2,1.7,0.5,2.5,0.7c0,0,0.1-0.1,0.1-0.1c-2.8-2.5-3.4-5.4-1.8-8.8
	c2.4,2.8,5.3,4.9,8.7,6c1.6,0.5,3.2,0.9,4.9,0.9c0.1-1.1,0.1-2.1,0.3-3.1c0.6-2.8,3.4-5,6.2-5c1.8,0,3.4,0.5,4.7,1.7
	c0.3,0.3,0.6,0.4,1,0.2C28.7,4.2,29.9,3.8,31.1,3.5C31,3.4,31,3.4,31.1,3.5z"/>
</svg>
