<?xml version="1.0" encoding="utf-8"?>
<!-- Generator: Adobe Illustrator 21.1.0, SVG Export Plug-In . SVG Version: 6.00 Build 0)  -->
<svg version="1.1" id="Слой_1" xmlns="http://www.w3.org/2000/svg" xmlns:xlink="http://www.w3.org/1999/xlink" x="0px" y="0px"
	 viewBox="0 0 32 32" style="enable-background:new 0 0 32 32;" xml:space="preserve">
<style type="text/css">
	.st0{fill:#00408B;}
</style>
<path class="st0" d="M16,27.2c-3.7,0-7.3,0-11,0c-2.3,0-4-1.2-4.7-3.3C0.1,23.4,0,22.8,0,22.3c0-4.2,0-8.4,0-12.6
	c0-2.8,2.1-4.9,4.9-4.9c3.9,0,7.7,0,11.6,0c3.5,0,7,0,10.5,0c1.8,0,3.2,0.7,4.2,2.2C31.8,7.8,32,8.7,32,9.7c0,4.2,0,8.4,0,12.6
	c0,2.9-2.1,4.9-5,4.9C23.3,27.2,19.7,27.2,16,27.2z M12.8,21.4c3.1-2,6.1-4,9.1-6c-3.1-2-6-4-9.1-6c0,3.9,0,7.7,0,11.4
	C12.8,20.9,12.8,21.1,12.8,21.4z"/>
</svg>
